<svg width="26" height="26" viewBox="0 0 26 26" fill="none" xmlns="http://www.w3.org/2000/svg">
<path d="M2.33333 15.6665H23.6667C24.4133 15.6665 25 16.2532 25 16.9998V24.9998H1V16.9998C1 16.2532 1.61333 15.6665 2.33333 15.6665Z" stroke="white" stroke-width="2" stroke-linecap="round" stroke-linejoin="round"/>
<path d="M13 8.09334C14.9588 8.09334 16.5467 6.50544 16.5467 4.54667C16.5467 2.5879 14.9588 1 13 1C11.0413 1 9.45337 2.5879 9.45337 4.54667C9.45337 6.50544 11.0413 8.09334 13 8.09334Z" stroke="white" stroke-width="2" stroke-miterlimit="10" stroke-linecap="round"/>
<path d="M18.3334 13.3468C18.3334 10.7334 16.2001 8.6001 13.5867 8.6001H12.4134C9.80008 8.6001 7.66675 10.7334 7.66675 13.3468" stroke="white" stroke-width="2" stroke-miterlimit="10" stroke-linecap="round"/>
</svg>
